<svg version="1.1" viewBox="0.0 0.0 405.0 371.0" fill="none" stroke="none" stroke-linecap="square" stroke-miterlimit="10" width="405" height="371" xmlns:xlink="http://www.w3.org/1999/xlink" xmlns="http://www.w3.org/2000/svg"><path fill="#ffffff" d="M0 0L405.0 0L405.0 371.0L0 371.0L0 0Z" fill-rule="nonzero"/><path stroke="#cccccc" stroke-width="1.0" stroke-linecap="butt" d="M77.5 345.5L276.5 345.5" fill-rule="nonzero"/><path stroke="#cccccc" stroke-width="1.0" stroke-linecap="butt" d="M77.5 250.5L276.5 250.5" fill-rule="nonzero"/><path stroke="#cccccc" stroke-width="1.0" stroke-linecap="butt" d="M77.5 156.5L276.5 156.5" fill-rule="nonzero"/><path stroke="#cccccc" stroke-width="1.0" stroke-linecap="butt" d="M77.5 61.5L276.5 61.5" fill-rule="nonzero"/><path stroke="#e6e6e6" stroke-width="1.0" stroke-linecap="butt" d="M77.5 255.5L276.5 255.5" fill-rule="nonzero"/><path stroke="#e6e6e6" stroke-width="1.0" stroke-linecap="butt" d="M77.5 260.5L276.5 260.5" fill-rule="nonzero"/><path stroke="#e6e6e6" stroke-width="1.0" stroke-linecap="butt" d="M77.5 265.5L276.5 265.5" fill-rule="nonzero"/><path stroke="#e6e6e6" stroke-width="1.0" stroke-linecap="butt" d="M77.5 271.5L276.5 271.5" fill-rule="nonzero"/><path stroke="#e6e6e6" stroke-width="1.0" stroke-linecap="butt" d="M77.5 279.5L276.5 279.5" fill-rule="nonzero"/><path stroke="#e6e6e6" stroke-width="1.0" stroke-linecap="butt" d="M77.5 288.5L276.5 288.5" fill-rule="nonzero"/><path stroke="#e6e6e6" stroke-width="1.0" stroke-linecap="butt" d="M77.5 300.5L276.5 300.5" fill-rule="nonzero"/><path stroke="#e6e6e6" stroke-width="1.0" stroke-linecap="butt" d="M77.5 316.5L276.5 316.5" fill-rule="nonzero"/><path stroke="#e6e6e6" stroke-width="1.0" stroke-linecap="butt" d="M77.5 160.5L276.5 160.5" fill-rule="nonzero"/><path stroke="#e6e6e6" stroke-width="1.0" stroke-linecap="butt" d="M77.5 165.5L276.5 165.5" fill-rule="nonzero"/><path stroke="#e6e6e6" stroke-width="1.0" stroke-linecap="butt" d="M77.5 171.5L276.5 171.5" fill-rule="nonzero"/><path stroke="#e6e6e6" stroke-width="1.0" stroke-linecap="butt" d="M77.5 177.5L276.5 177.5" fill-rule="nonzero"/><path stroke="#e6e6e6" stroke-width="1.0" stroke-linecap="butt" d="M77.5 184.5L276.5 184.5" fill-rule="nonzero"/><path stroke="#e6e6e6" stroke-width="1.0" stroke-linecap="butt" d="M77.5 194.5L276.5 194.5" fill-rule="nonzero"/><path stroke="#e6e6e6" stroke-width="1.0" stroke-linecap="butt" d="M77.5 205.5L276.5 205.5" fill-rule="nonzero"/><path stroke="#e6e6e6" stroke-width="1.0" stroke-linecap="butt" d="M77.5 222.5L276.5 222.5" fill-rule="nonzero"/><path stroke="#e6e6e6" stroke-width="1.0" stroke-linecap="butt" d="M77.5 66.5L276.5 66.5" fill-rule="nonzero"/><path stroke="#e6e6e6" stroke-width="1.0" stroke-linecap="butt" d="M77.5 71.5L276.5 71.5" fill-rule="nonzero"/><path stroke="#e6e6e6" stroke-width="1.0" stroke-linecap="butt" d="M77.5 76.5L276.5 76.5" fill-rule="nonzero"/><path stroke="#e6e6e6" stroke-width="1.0" stroke-linecap="butt" d="M77.5 82.5L276.5 82.5" fill-rule="nonzero"/><path stroke="#e6e6e6" stroke-width="1.0" stroke-linecap="butt" d="M77.5 90.5L276.5 90.5" fill-rule="nonzero"/><path stroke="#e6e6e6" stroke-width="1.0" stroke-linecap="butt" d="M77.5 99.5L276.5 99.5" fill-rule="nonzero"/><path stroke="#e6e6e6" stroke-width="1.0" stroke-linecap="butt" d="M77.5 111.5L276.5 111.5" fill-rule="nonzero"/><path stroke="#e6e6e6" stroke-width="1.0" stroke-linecap="butt" d="M77.5 127.5L276.5 127.5" fill-rule="nonzero"/><clipPath id="id_0"><path d="M77.55 61.916668L276.08 61.916668L276.08 345.45L77.55 345.45L77.55 61.916668Z" clip-rule="nonzero"/></clipPath><path fill="#4285f4" clip-path="url(#id_0)" d="M100.09818 120.28887C100.09818 122.774155 98.083466 124.78887 95.59818 124.78887C93.1129 124.78887 91.09818 122.774155 91.09818 120.28887C91.09818 117.80359 93.1129 115.78887 95.59818 115.78887C98.083466 115.78887 100.09818 117.80359 100.09818 120.28887Z" fill-rule="nonzero"/><path fill="#4285f4" clip-path="url(#id_0)" d="M118.14636 120.442314C118.14636 122.9276 116.131645 124.942314 113.64636 124.942314C111.16108 124.942314 109.14636 122.9276 109.14636 120.442314C109.14636 117.95703 111.16108 115.942314 113.64636 115.942314C116.131645 115.942314 118.14636 117.95703 118.14636 120.442314Z" fill-rule="nonzero"/><path fill="#4285f4" clip-path="url(#id_0)" d="M136.19455 120.459404C136.19455 122.94468 134.17982 124.959404 131.69455 124.959404C129.20926 124.959404 127.19454 122.94468 127.19454 120.459404C127.19454 117.97412 129.20926 115.959404 131.69455 115.959404C134.17982 115.959404 136.19455 117.97412 136.19455 120.459404Z" fill-rule="nonzero"/><path fill="#4285f4" clip-path="url(#id_0)" d="M154.24272 120.408165C154.24272 122.89345 152.22801 124.908165 149.74272 124.908165C147.25745 124.908165 145.24272 122.89345 145.24272 120.408165C145.24272 117.92289 147.25745 115.908165 149.74272 115.908165C152.22801 115.908165 154.24272 117.92289 154.24272 120.408165Z" fill-rule="nonzero"/><path fill="#4285f4" clip-path="url(#id_0)" d="M172.29091 120.408165C172.29091 122.89345 170.27618 124.908165 167.79091 124.908165C165.30563 124.908165 163.29091 122.89345 163.29091 120.408165C163.29091 117.92289 165.30563 115.908165 167.79091 115.908165C170.27618 115.908165 172.29091 117.92289 172.29091 120.408165Z" fill-rule="nonzero"/><path fill="#4285f4" clip-path="url(#id_0)" d="M190.3391 120.32292C190.3391 122.808205 188.32437 124.82292 185.8391 124.82292C183.3538 124.82292 181.3391 122.808205 181.3391 120.32292C181.3391 117.83764 183.3538 115.82292 185.8391 115.82292C188.32437 115.82292 190.3391 117.83764 190.3391 120.32292Z" fill-rule="nonzero"/><path fill="#4285f4" clip-path="url(#id_0)" d="M208.38727 120.442314C208.38727 122.9276 206.37256 124.942314 203.88727 124.942314C201.402 124.942314 199.38727 122.9276 199.38727 120.442314C199.38727 117.95703 201.402 115.942314 203.88727 115.942314C206.37256 115.942314 208.38727 117.95703 208.38727 120.442314Z" fill-rule="nonzero"/><path fill="#4285f4" clip-path="url(#id_0)" d="M226.43546 120.33996C226.43546 122.82524 224.42073 124.83996 221.93546 124.83996C219.45018 124.83996 217.43546 122.82524 217.43546 120.33996C217.43546 117.854675 219.45018 115.83996 221.93546 115.83996C224.42073 115.83996 226.43546 117.854675 226.43546 120.33996Z" fill-rule="nonzero"/><path fill="#4285f4" clip-path="url(#id_0)" d="M244.48364 120.32292C244.48364 122.808205 242.46892 124.82292 239.98364 124.82292C237.49835 124.82292 235.48364 122.808205 235.48364 120.32292C235.48364 117.83764 237.49835 115.82292 239.98364 115.82292C242.46892 115.82292 244.48364 117.83764 244.48364 120.32292Z" fill-rule="nonzero"/><path fill="#4285f4" clip-path="url(#id_0)" d="M262.53183 120.42524C262.53183 122.91052 260.5171 124.92524 258.03183 124.92524C255.54654 124.92524 253.53181 122.91052 253.53181 120.42524C253.53181 117.93996 255.54654 115.92524 258.03183 115.92524C260.5171 115.92524 262.53183 117.93996 262.53183 120.42524Z" fill-rule="nonzero"/><path fill="#ea4335" clip-path="url(#id_0)" d="M100.09818 273.29758C100.09818 275.78287 98.083466 277.79758 95.59818 277.79758C93.1129 277.79758 91.09818 275.78287 91.09818 273.29758C91.09818 270.8123 93.1129 268.79758 95.59818 268.79758C98.083466 268.79758 100.09818 270.8123 100.09818 273.29758Z" fill-rule="nonzero"/><path fill="#ea4335" clip-path="url(#id_0)" d="M118.14636 281.9293C118.14636 284.41458 116.131645 286.4293 113.64636 286.4293C111.16108 286.4293 109.14636 284.41458 109.14636 281.9293C109.14636 279.444 111.16108 277.4293 113.64636 277.4293C116.131645 277.4293 118.14636 279.444 118.14636 281.9293Z" fill-rule="nonzero"/><path fill="#ea4335" clip-path="url(#id_0)" d="M136.19455 267.37674C136.19455 269.86203 134.17982 271.87674 131.69455 271.87674C129.20926 271.87674 127.19454 269.86203 127.19454 267.37674C127.19454 264.89148 129.20926 262.87674 131.69455 262.87674C134.17982 262.87674 136.19455 264.89148 136.19455 267.37674Z" fill-rule="nonzero"/><path fill="#ea4335" clip-path="url(#id_0)" d="M154.24272 278.57675C154.24272 281.06204 152.22801 283.07675 149.74272 283.07675C147.25745 283.07675 145.24272 281.06204 145.24272 278.57675C145.24272 276.09146 147.25745 274.07675 149.74272 274.07675C152.22801 274.07675 154.24272 276.09146 154.24272 278.57675Z" fill-rule="nonzero"/><path fill="#ea4335" clip-path="url(#id_0)" d="M172.29091 276.9979C172.29091 279.48315 170.27618 281.4979 167.79091 281.4979C165.30563 281.4979 163.29091 279.48315 163.29091 276.9979C163.29091 274.5126 165.30563 272.4979 167.79091 272.4979C170.27618 272.4979 172.29091 274.5126 172.29091 276.9979Z" fill-rule="nonzero"/><path fill="#ea4335" clip-path="url(#id_0)" d="M190.3391 269.90344C190.3391 272.38873 188.32437 274.40344 185.8391 274.40344C183.3538 274.40344 181.3391 272.38873 181.3391 269.90344C181.3391 267.41815 183.3538 265.40344 185.8391 265.40344C188.32437 265.40344 190.3391 267.41815 190.3391 269.90344Z" fill-rule="nonzero"/><path fill="#ea4335" clip-path="url(#id_0)" d="M208.38727 268.62067C208.38727 271.10593 206.37256 273.12067 203.88727 273.12067C201.402 273.12067 199.38727 271.10593 199.38727 268.62067C199.38727 266.13538 201.402 264.12067 203.88727 264.12067C206.37256 264.12067 208.38727 266.13538 208.38727 268.62067Z" fill-rule="nonzero"/><path fill="#ea4335" clip-path="url(#id_0)" d="M226.43546 269.90344C226.43546 272.38873 224.42073 274.40344 221.93546 274.40344C219.45018 274.40344 217.43546 272.38873 217.43546 269.90344C217.43546 267.41815 219.45018 265.40344 221.93546 265.40344C224.42073 265.40344 226.43546 267.41815 226.43546 269.90344Z" fill-rule="nonzero"/><path fill="#ea4335" clip-path="url(#id_0)" d="M244.48364 279.38956C244.48364 281.87485 242.46892 283.88956 239.98364 283.88956C237.49835 283.88956 235.48364 281.87485 235.48364 279.38956C235.48364 276.9043 237.49835 274.88956 239.98364 274.88956C242.46892 274.88956 244.48364 276.9043 244.48364 279.38956Z" fill-rule="nonzero"/><path fill="#ea4335" clip-path="url(#id_0)" d="M262.53183 279.38956C262.53183 281.87485 260.5171 283.88956 258.03183 283.88956C255.54654 283.88956 253.53181 281.87485 253.53181 279.38956C253.53181 276.9043 255.54654 274.88956 258.03183 274.88956C260.5171 274.88956 262.53183 276.9043 262.53183 279.38956Z" fill-rule="nonzero"/><path fill="#000000" d="M29.550013 301.07397L21.971888 301.07397L21.971888 303.9021L20.956263 303.9021L20.956263 297.0896L21.971888 297.0896L21.971888 299.93335L29.550013 299.93335L29.550013 301.07397ZM29.550013 296.38647L20.956263 296.38647L20.956263 295.3396L24.034388 295.3396Q23.190638 294.60522 23.190638 293.48022Q23.190638 292.7771 23.471888 292.2771Q23.737513 291.76147 24.221888 291.54272Q24.690638 291.32397 25.612513 291.32397L29.550013 291.32397L29.550013 292.37085L25.612513 292.37085Q24.815638 292.37085 24.456263 292.7146Q24.096888 293.05835 24.096888 293.68335Q24.096888 294.1521 24.346888 294.57397Q24.581263 294.98022 25.003138 295.16772Q25.409388 295.3396 26.143763 295.3396L29.550013 295.3396L29.550013 296.38647ZM28.784388 285.32397Q29.284388 285.91772 29.487513 286.4646Q29.690638 286.99585 29.690638 287.62085Q29.690638 288.6521 29.190638 289.19897Q28.690638 289.74585 27.909388 289.74585Q27.456263 289.74585 27.081263 289.54272Q26.690638 289.3396 26.471888 288.99585Q26.237513 288.6521 26.128138 288.23022Q26.034388 287.93335 25.956263 287.29272Q25.815638 286.0271 25.596888 285.41772Q25.378138 285.41772 25.331263 285.41772Q24.675013 285.41772 24.409388 285.7146Q24.065638 286.12085 24.065638 286.91772Q24.065638 287.6521 24.331263 288.01147Q24.581263 288.37085 25.237513 288.54272L25.096888 289.57397Q24.440638 289.43335 24.034388 289.10522Q23.628138 288.7771 23.409388 288.16772Q23.190638 287.55835 23.190638 286.76147Q23.190638 285.9646 23.378138 285.4646Q23.565638 284.9646 23.846888 284.73022Q24.128138 284.49585 24.565638 284.4021Q24.831263 284.35522 25.534388 284.35522L26.940638 284.35522Q28.409388 284.35522 28.800013 284.29272Q29.190638 284.2146 29.550013 284.01147L29.550013 285.12085Q29.221888 285.2771 28.784388 285.32397ZM26.425013 285.41772Q26.659388 285.99585 26.831263 287.13647Q26.925013 287.79272 27.050013 288.05835Q27.159388 288.32397 27.378138 288.48022Q27.596888 288.62085 27.878138 288.62085Q28.300013 288.62085 28.581263 288.30835Q28.862513 287.98022 28.862513 287.37085Q28.862513 286.76147 28.596888 286.29272Q28.331263 285.80835 27.862513 285.5896Q27.503138 285.41772 26.815638 285.41772L26.425013 285.41772ZM28.612513 280.0896L29.534388 279.93335Q29.628138 280.38647 29.628138 280.73022Q29.628138 281.30835 29.456263 281.62085Q29.268763 281.93335 28.971888 282.07397Q28.675013 282.19897 27.721888 282.19897L24.143763 282.19897L24.143763 282.9646L23.331263 282.9646L23.331263 282.19897L21.784388 282.19897L21.159388 281.1521L23.331263 281.1521L23.331263 280.0896L24.143763 280.0896L24.143763 281.1521L27.784388 281.1521Q28.237513 281.1521 28.362513 281.10522Q28.487513 281.04272 28.565638 280.91772Q28.643763 280.79272 28.643763 280.55835Q28.643763 280.37085 28.612513 280.0896ZM28.784388 272.32397Q29.284388 272.91772 29.487513 273.4646Q29.690638 273.99585 29.690638 274.62085Q29.690638 275.6521 29.190638 276.19897Q28.690638 276.74585 27.909388 276.74585Q27.456263 276.74585 27.081263 276.54272Q26.690638 276.3396 26.471888 275.99585Q26.237513 275.6521 26.128138 275.23022Q26.034388 274.93335 25.956263 274.29272Q25.815638 273.0271 25.596888 272.41772Q25.378138 272.41772 25.331263 272.41772Q24.675013 272.41772 24.409388 272.7146Q24.065638 273.12085 24.065638 273.91772Q24.065638 274.6521 24.331263 275.01147Q24.581263 275.37085 25.237513 275.54272L25.096888 276.57397Q24.440638 276.43335 24.034388 276.10522Q23.628138 275.7771 23.409388 275.16772Q23.190638 274.55835 23.190638 273.76147Q23.190638 272.9646 23.378138 272.4646Q23.565638 271.9646 23.846888 271.73022Q24.128138 271.49585 24.565638 271.4021Q24.831263 271.35522 25.534388 271.35522L26.940638 271.35522Q28.409388 271.35522 28.800013 271.29272Q29.190638 271.2146 29.550013 271.01147L29.550013 272.12085Q29.221888 272.2771 28.784388 272.32397ZM26.425013 272.41772Q26.659388 272.99585 26.831263 274.13647Q26.925013 274.79272 27.050013 275.05835Q27.159388 275.32397 27.378138 275.48022Q27.596888 275.62085 27.878138 275.62085Q28.300013 275.62085 28.581263 275.30835Q28.862513 274.98022 28.862513 274.37085Q28.862513 273.76147 28.596888 273.29272Q28.331263 272.80835 27.862513 272.5896Q27.503138 272.41772 26.815638 272.41772L26.425013 272.41772ZM29.550013 269.38647L23.331263 269.38647L23.331263 268.44897L24.206263 268.44897Q23.737513 268.1521 23.471888 267.66772Q23.190638 267.18335 23.190638 266.55835Q23.190638 265.87085 23.471888 265.43335Q23.753138 264.98022 24.268763 264.80835Q23.190638 264.05835 23.190638 262.88647Q23.190638 261.94897 23.706263 261.4646Q24.206263 260.9646 25.284388 260.9646L29.550013 260.9646L29.550013 262.01147L25.628138 262.01147Q25.003138 262.01147 24.721888 262.12085Q24.440638 262.2146 24.268763 262.48022Q24.096888 262.74585 24.096888 263.12085Q24.096888 263.7771 24.534388 264.2146Q24.971888 264.63647 25.940638 264.63647L29.550013 264.63647L29.550013 265.69897L25.503138 265.69897Q24.800013 265.69897 24.456263 265.9646Q24.096888 266.2146 24.096888 266.79272Q24.096888 267.24585 24.331263 267.62085Q24.565638 267.99585 25.018763 268.16772Q25.471888 268.3396 26.315638 268.3396L29.550013 268.3396L29.550013 269.38647ZM26.440638 258.7771Q24.706263 258.7771 23.878138 257.82397Q23.190638 257.0271 23.190638 255.87083Q23.190638 254.58958 24.034388 253.77708Q24.862513 252.94896 26.346888 252.94896Q27.550013 252.94896 28.237513 253.30833Q28.925013 253.66771 29.315638 254.37083Q29.690638 255.05833 29.690638 255.87083Q29.690638 257.16772 28.862513 257.98022Q28.018763 258.7771 26.440638 258.7771ZM26.440638 257.69897Q27.628138 257.69897 28.221888 257.18335Q28.815638 256.6521 28.815638 255.87083Q28.815638 255.07396 28.221888 254.55833Q27.628138 254.04271 26.409388 254.04271Q25.253138 254.04271 24.659388 254.57396Q24.065638 255.08958 24.065638 255.87083Q24.065638 256.6521 24.659388 257.18335Q25.237513 257.69897 26.440638 257.69897ZM29.550013 247.30833L28.628138 247.30833Q29.690638 248.04271 29.690638 249.29271Q29.690638 249.83958 29.487513 250.32396Q29.268763 250.79271 28.956263 251.02708Q28.628138 251.26146 28.159388 251.35521Q27.862513 251.41771 27.175013 251.41771L23.331263 251.41771L23.331263 250.35521L26.784388 250.35521Q27.596888 250.35521 27.893763 250.29271Q28.300013 250.19896 28.550013 249.88646Q28.784388 249.55833 28.784388 249.07396Q28.784388 248.60521 28.550013 248.19896Q28.300013 247.77708 27.878138 247.60521Q27.456263 247.41771 26.659388 247.41771L23.331263 247.41771L23.331263 246.37083L29.550013 246.37083L29.550013 247.30833ZM29.550013 244.38646L23.331263 244.38646L23.331263 243.44896L24.206263 243.44896Q23.190638 242.76146 23.190638 241.46458Q23.190638 240.90208 23.393763 240.43333Q23.596888 239.94896 23.925013 239.71458Q24.253138 239.48021 24.690638 239.38646Q24.987513 239.33958 25.721888 239.33958L29.550013 239.33958L29.550013 240.38646L25.768763 240.38646Q25.112513 240.38646 24.800013 240.51146Q24.487513 240.63646 24.300013 240.94896Q24.096888 241.26146 24.096888 241.68333Q24.096888 242.35521 24.534388 242.85521Q24.956263 243.33958 26.143763 243.33958L29.550013 243.33958L29.550013 244.38646ZM28.612513 235.08958L29.534388 234.93333Q29.628138 235.38646 29.628138 235.73021Q29.628138 236.30833 29.456263 236.62083Q29.268763 236.93333 28.971888 237.07396Q28.675013 237.19896 27.721888 237.19896L24.143763 237.19896L24.143763 237.96458L23.331263 237.96458L23.331263 237.19896L21.784388 237.19896L21.159388 236.15208L23.331263 236.15208L23.331263 235.08958L24.143763 235.08958L24.143763 236.15208L27.784388 236.15208Q28.237513 236.15208 28.362513 236.10521Q28.487513 236.04271 28.565638 235.91771Q28.643763 235.79271 28.643763 235.55833Q28.643763 235.37083 28.612513 235.08958ZM26.440638 231.77708Q24.706263 231.77708 23.878138 230.82396Q23.190638 230.02708 23.190638 228.87083Q23.190638 227.58958 24.034388 226.77708Q24.862513 225.94896 26.346888 225.94896Q27.550013 225.94896 28.237513 226.30833Q28.925013 226.66771 29.315638 227.37083Q29.690638 228.05833 29.690638 228.87083Q29.690638 230.16771 28.862513 230.98021Q28.018763 231.77708 26.440638 231.77708ZM26.440638 230.69896Q27.628138 230.69896 28.221888 230.18333Q28.815638 229.65208 28.815638 228.87083Q28.815638 228.07396 28.221888 227.55833Q27.628138 227.04271 26.409388 227.04271Q25.253138 227.04271 24.659388 227.57396Q24.065638 228.08958 24.065638 228.87083Q24.065638 229.65208 24.659388 230.18333Q25.237513 230.69896 26.440638 230.69896ZM29.550013 224.13646L24.143763 224.13646L24.143763 225.07396L23.331263 225.07396L23.331263 224.13646L22.659388 224.13646Q22.034388 224.13646 21.737513 224.02708Q21.315638 223.87083 21.065638 223.49583Q20.815638 223.10521 20.815638 222.41771Q20.815638 221.96458 20.925013 221.43333L21.831263 221.58958Q21.784388 221.91771 21.784388 222.21458Q21.784388 222.69896 21.987513 222.90208Q22.190638 223.08958 22.753138 223.08958L23.331263 223.08958L23.331263 221.87083L24.143763 221.87083L24.143763 223.08958L29.550013 223.08958L29.550013 224.13646ZM28.612513 216.08958L29.534388 215.93333Q29.628138 216.38646 29.628138 216.73021Q29.628138 217.30833 29.456263 217.62083Q29.268763 217.93333 28.971888 218.07396Q28.675013 218.19896 27.721888 218.19896L24.143763 218.19896L24.143763 218.96458L23.331263 218.96458L23.331263 218.19896L21.784388 218.19896L21.159388 217.15208L23.331263 217.15208L23.331263 216.08958L24.143763 216.08958L24.143763 217.15208L27.784388 217.15208Q28.237513 217.15208 28.362513 217.10521Q28.487513 217.04271 28.565638 216.91771Q28.643763 216.79271 28.643763 216.55833Q28.643763 216.37083 28.612513 216.08958ZM22.175013 215.38646L20.956263 215.38646L20.956263 214.32396L22.175013 214.32396L22.175013 215.38646ZM29.550013 215.38646L23.331263 215.38646L23.331263 214.32396L29.550013 214.32396L29.550013 215.38646ZM29.550013 212.38646L23.331263 212.38646L23.331263 211.44896L24.206263 211.44896Q23.737513 211.15208 23.471888 210.66771Q23.190638 210.18333 23.190638 209.55833Q23.190638 208.87083 23.471888 208.43333Q23.753138 207.98021 24.268763 207.80833Q23.190638 207.05833 23.190638 205.88646Q23.190638 204.94896 23.706263 204.46458Q24.206263 203.96458 25.284388 203.96458L29.550013 203.96458L29.550013 205.01146L25.628138 205.01146Q25.003138 205.01146 24.721888 205.12083Q24.440638 205.21458 24.268763 205.48021Q24.096888 205.74583 24.096888 206.12083Q24.096888 206.77708 24.534388 207.21458Q24.971888 207.63646 25.940638 207.63646L29.550013 207.63646L29.550013 208.69896L25.503138 208.69896Q24.800013 208.69896 24.456263 208.96458Q24.096888 209.21458 24.096888 209.79271Q24.096888 210.24583 24.331263 210.62083Q24.565638 210.99583 25.018763 211.16771Q25.471888 211.33958 26.315638 211.33958L29.550013 211.33958L29.550013 212.38646ZM27.550013 197.13646L27.675013 196.04271Q28.628138 196.29271 29.159388 196.99583Q29.690638 197.69896 29.690638 198.77708Q29.690638 200.13646 28.846888 200.94896Q28.003138 201.74583 26.487513 201.74583Q24.925013 201.74583 24.065638 200.93333Q23.190638 200.12083 23.190638 198.83958Q23.190638 197.58958 24.034388 196.80833Q24.878138 196.01146 26.425013 196.01146Q26.518763 196.01146 26.706263 196.01146L26.706263 200.65208Q27.737513 200.58958 28.284388 200.07396Q28.815638 199.55833 28.815638 198.77708Q28.815638 198.19896 28.518763 197.79271Q28.206263 197.37083 27.550013 197.13646ZM25.846888 200.58958L25.846888 197.12083Q25.050013 197.18333 24.659388 197.51146Q24.050013 198.02708 24.050013 198.82396Q24.050013 199.55833 24.534388 200.05833Q25.018763 200.54271 25.846888 200.58958ZM32.08126 189.37083Q30.971888 190.24583 29.503138 190.85521Q28.018763 191.44896 26.440638 191.44896Q25.050013 191.44896 23.768763 191.01146Q22.284388 190.48021 20.815638 189.37083L20.815638 188.62083Q22.034388 189.32396 22.550013 189.55833Q23.362513 189.91771 24.237513 190.12083Q25.331263 190.37083 26.440638 190.37083Q29.268763 190.37083 32.08126 188.62083L32.08126 189.37083ZM27.690638 187.80833L27.534388 186.77708Q28.159388 186.68333 28.487513 186.29271Q28.815638 185.88646 28.815638 185.15208Q28.815638 184.43333 28.534388 184.08958Q28.237513 183.73021 27.831263 183.73021Q27.471888 183.73021 27.268763 184.04271Q27.128138 184.26146 26.909388 185.12083Q26.612513 186.27708 26.409388 186.73021Q26.190638 187.16771 25.815638 187.40208Q25.440638 187.63646 24.971888 187.63646Q24.565638 187.63646 24.206263 187.44896Q23.846888 187.26146 23.612513 186.93333Q23.440638 186.68333 23.315638 186.26146Q23.190638 185.83958 23.190638 185.33958Q23.190638 184.62083 23.409388 184.07396Q23.612513 183.51146 23.971888 183.24583Q24.331263 182.98021 24.925013 182.88646L25.065638 183.91771Q24.596888 183.98021 24.331263 184.32396Q24.050013 184.65208 24.050013 185.27708Q24.050013 185.99583 24.300013 186.30833Q24.534388 186.62083 24.862513 186.62083Q25.065638 186.62083 25.221888 186.49583Q25.393763 186.35521 25.503138 186.08958Q25.565638 185.93333 25.768763 185.15208Q26.081263 184.02708 26.268763 183.58958Q26.456263 183.15208 26.815638 182.90208Q27.175013 182.65208 27.721888 182.65208Q28.253138 182.65208 28.721888 182.96458Q29.175013 183.26146 29.440638 183.83958Q29.690638 184.41771 29.690638 185.15208Q29.690638 186.37083 29.190638 187.01146Q28.675013 187.63646 27.690638 187.80833ZM27.550013 176.13646L27.675013 175.04271Q28.628138 175.29271 29.159388 175.99583Q29.690638 176.69896 29.690638 177.77708Q29.690638 179.13646 28.846888 179.94896Q28.003138 180.74583 26.487513 180.74583Q24.925013 180.74583 24.065638 179.93333Q23.190638 179.12083 23.190638 177.83958Q23.190638 176.58958 24.034388 175.80833Q24.878138 175.01146 26.425013 175.01146Q26.518763 175.01146 26.706263 175.01146L26.706263 179.65208Q27.737513 179.58958 28.284388 179.07396Q28.815638 178.55833 28.815638 177.77708Q28.815638 177.19896 28.518763 176.79271Q28.206263 176.37083 27.550013 176.13646ZM25.846888 179.58958L25.846888 176.12083Q25.050013 176.18333 24.659388 176.51146Q24.050013 177.02708 24.050013 177.82396Q24.050013 178.55833 24.534388 179.05833Q25.018763 179.54271 25.846888 179.58958ZM27.268763 169.32396L27.409388 168.29271Q28.471888 168.46458 29.081263 169.16771Q29.690638 169.87083 29.690638 170.88646Q29.690638 172.16771 28.862513 172.94896Q28.018763 173.71458 26.456263 173.71458Q25.456263 173.71458 24.706263 173.38646Q23.940638 173.04271 23.565638 172.37083Q23.190638 171.68333 23.190638 170.87083Q23.190638 169.87083 23.706263 169.23021Q24.206263 168.57396 25.159388 168.38646L25.315638 169.41771Q24.690638 169.55833 24.378138 169.93333Q24.050013 170.30833 24.050013 170.83958Q24.050013 171.63646 24.628138 172.13646Q25.190638 172.63646 26.425013 172.63646Q27.690638 172.63646 28.253138 172.15208Q28.815638 171.66771 28.815638 170.90208Q28.815638 170.27708 28.440638 169.87083Q28.065638 169.44896 27.268763 169.32396ZM32.08126 166.69896L32.08126 167.44896Q29.268763 165.69896 26.440638 165.69896Q25.346888 165.69896 24.253138 165.94896Q23.378138 166.15208 22.565638 166.51146Q22.050013 166.74583 20.815638 167.44896L20.815638 166.69896Q22.284388 165.60521 23.768763 165.07396Q25.050013 164.62083 26.440638 164.62083Q28.018763 164.62083 29.503138 165.23021Q30.971888 165.83958 32.08126 166.69896ZM32.08126 158.37083Q30.971888 159.24583 29.503138 159.85521Q28.018763 160.44896 26.440638 160.44896Q25.050013 160.44896 23.768763 160.01146Q22.284388 159.48021 20.815638 158.37083L20.815638 157.62083Q22.034388 158.32396 22.550013 158.55833Q23.362513 158.91771 24.237513 159.12083Q25.331263 159.37083 26.440638 159.37083Q29.268763 159.37083 32.08126 157.62083L32.08126 158.37083ZM29.550013 156.41771L20.956263 156.41771L20.956263 155.35521L29.550013 155.35521L29.550013 156.41771ZM26.440638 153.77708Q24.706263 153.77708 23.878138 152.82396Q23.190638 152.02708 23.190638 150.87083Q23.190638 149.58958 24.034388 148.77708Q24.862513 147.94896 26.346888 147.94896Q27.550013 147.94896 28.237513 148.30833Q28.925013 148.66771 29.315638 149.37083Q29.690638 150.05833 29.690638 150.87083Q29.690638 152.16771 28.862513 152.98021Q28.018763 153.77708 26.440638 153.77708ZM26.440638 152.69896Q27.628138 152.69896 28.221888 152.18333Q28.815638 151.65208 28.815638 150.87083Q28.815638 150.07396 28.221888 149.55833Q27.628138 149.04271 26.409388 149.04271Q25.253138 149.04271 24.659388 149.57396Q24.065638 150.08958 24.065638 150.87083Q24.065638 151.65208 24.659388 152.18333Q25.237513 152.69896 26.440638 152.69896ZM30.065638 146.58958L30.221888 145.55833Q30.690638 145.49583 30.909388 145.19896Q31.206263 144.80833 31.206263 144.13646Q31.206263 143.40208 30.909388 143.01146Q30.612513 142.60521 30.096888 142.46458Q29.768763 142.37083 28.737513 142.38646Q29.550013 143.07396 29.550013 144.10521Q29.550013 145.38646 28.628138 146.08958Q27.690638 146.79271 26.409388 146.79271Q25.518763 146.79271 24.768763 146.48021Q24.003138 146.15208 23.596888 145.54271Q23.190638 144.93333 23.190638 144.10521Q23.190638 142.99583 24.081263 142.27708L23.331263 142.27708L23.331263 141.30833L28.706263 141.30833Q30.159388 141.30833 30.768763 141.60521Q31.378138 141.90208 31.721888 142.54271Q32.08126 143.18333 32.08126 144.12083Q32.08126 145.23021 31.581263 145.91771Q31.081263 146.60521 30.065638 146.58958ZM26.331263 145.71458Q27.550013 145.71458 28.112513 145.23021Q28.675013 144.74583 28.675013 144.01146Q28.675013 143.27708 28.112513 142.79271Q27.550013 142.29271 26.362513 142.29271Q25.221888 142.29271 24.643763 142.80833Q24.065638 143.30833 24.065638 144.02708Q24.065638 144.73021 24.643763 145.23021Q25.206263 145.71458 26.331263 145.71458ZM27.690638 136.80833L27.534388 135.77708Q28.159388 135.68333 28.487513 135.29271Q28.815638 134.88646 28.815638 134.15208Q28.815638 133.43333 28.534388 133.08958Q28.237513 132.73021 27.831263 132.73021Q27.471888 132.73021 27.268763 133.04271Q27.128138 133.26146 26.909388 134.12083Q26.612513 135.27708 26.409388 135.73021Q26.190638 136.16771 25.815638 136.40208Q25.440638 136.63646 24.971888 136.63646Q24.565638 136.63646 24.206263 136.44896Q23.846888 136.26146 23.612513 135.93333Q23.440638 135.68333 23.315638 135.26146Q23.190638 134.83958 23.190638 134.33958Q23.190638 133.62083 23.409388 133.07396Q23.612513 132.51146 23.971888 132.24583Q24.331263 131.98021 24.925013 131.88646L25.065638 132.91771Q24.596888 132.98021 24.331263 133.32396Q24.050013 133.65208 24.050013 134.27708Q24.050013 134.99583 24.300013 135.30833Q24.534388 135.62083 24.862513 135.62083Q25.065638 135.62083 25.221888 135.49583Q25.393763 135.35521 25.503138 135.08958Q25.565638 134.93333 25.768763 134.15208Q26.081263 133.02708 26.268763 132.58958Q26.456263 132.15208 26.815638 131.90208Q27.175013 131.65208 27.721888 131.65208Q28.253138 131.65208 28.721888 131.96458Q29.175013 132.26146 29.440638 132.83958Q29.690638 133.41771 29.690638 134.15208Q29.690638 135.37083 29.190638 136.01146Q28.675013 136.63646 27.690638 136.80833ZM27.268763 125.32396L27.409388 124.29271Q28.471888 124.464584 29.081263 125.16771Q29.690638 125.870834 29.690638 126.88646Q29.690638 128.16771 28.862513 128.94896Q28.018763 129.71458 26.456263 129.71458Q25.456263 129.71458 24.706263 129.38646Q23.940638 129.04271 23.565638 128.37083Q23.190638 127.683334 23.190638 126.870834Q23.190638 125.870834 23.706263 125.23021Q24.206263 124.57396 25.159388 124.38646L25.315638 125.41771Q24.690638 125.558334 24.378138 125.933334Q24.050013 126.308334 24.050013 126.839584Q24.050013 127.63646 24.628138 128.13646Q25.190638 128.63646 26.425013 128.63646Q27.690638 128.63646 28.253138 128.15208Q28.815638 127.66771 28.815638 126.902084Q28.815638 126.277084 28.440638 125.870834Q28.065638 125.44896 27.268763 125.32396ZM28.784388 119.32396Q29.284388 119.91771 29.487513 120.464584Q29.690638 120.995834 29.690638 121.620834Q29.690638 122.652084 29.190638 123.19896Q28.690638 123.745834 27.909388 123.745834Q27.456263 123.745834 27.081263 123.54271Q26.690638 123.339584 26.471888 122.995834Q26.237513 122.652084 26.128138 122.23021Q26.034388 121.933334 25.956263 121.29271Q25.815638 120.027084 25.596888 119.41771Q25.378138 119.41771 25.331263 119.41771Q24.675013 119.41771 24.409388 119.714584Q24.065638 120.120834 24.065638 120.91771Q24.065638 121.652084 24.331263 122.01146Q24.581263 122.370834 25.237513 122.54271L25.096888 123.57396Q24.440638 123.433334 24.034388 123.10521Q23.628138 122.777084 23.409388 122.16771Q23.190638 121.558334 23.190638 120.76146Q23.190638 119.964584 23.378138 119.464584Q23.565638 118.964584 23.846888 118.73021Q24.128138 118.495834 24.565638 118.402084Q24.831263 118.35521 25.534388 118.35521L26.940638 118.35521Q28.409388 118.35521 28.800013 118.29271Q29.190638 118.214584 29.550013 118.01146L29.550013 119.120834Q29.221888 119.277084 28.784388 119.32396ZM26.425013 119.41771Q26.659388 119.995834 26.831263 121.13646Q26.925013 121.79271 27.050013 122.058334Q27.159388 122.32396 27.378138 122.48021Q27.596888 122.620834 27.878138 122.620834Q28.300013 122.620834 28.581263 122.308334Q28.862513 121.98021 28.862513 121.370834Q28.862513 120.76146 28.596888 120.29271Q28.331263 119.808334 27.862513 119.589584Q27.503138 119.41771 26.815638 119.41771L26.425013 119.41771ZM29.550013 116.41771L20.956263 116.41771L20.956263 115.35521L29.550013 115.35521L29.550013 116.41771ZM27.550013 109.136475L27.675013 108.042725Q28.628138 108.292725 29.159388 108.99585Q29.690638 109.698975 29.690638 110.7771Q29.690638 112.136475 28.846888 112.948975Q28.003138 113.74585 26.487513 113.74585Q24.925013 113.74585 24.065638 112.93335Q23.190638 112.12085 23.190638 110.8396Q23.190638 109.5896 24.034388 108.80835Q24.878138 108.011475 26.425013 108.011475Q26.518763 108.011475 26.706263 108.011475L26.706263 112.6521Q27.737513 112.5896 28.284388 112.073975Q28.815638 111.55835 28.815638 110.7771Q28.815638 110.198975 28.518763 109.792725Q28.206263 109.37085 27.550013 109.136475ZM25.846888 112.5896L25.846888 109.12085Q25.050013 109.18335 24.659388 109.511475Q24.050013 110.0271 24.050013 110.823975Q24.050013 111.55835 24.534388 112.05835Q25.018763 112.542725 25.846888 112.5896ZM32.08126 105.698975L32.08126 106.448975Q29.268763 104.698975 26.440638 104.698975Q25.346888 104.698975 24.253138 104.948975Q23.378138 105.1521 22.565638 105.511475Q22.050013 105.74585 20.815638 106.448975L20.815638 105.698975Q22.284388 104.605225 23.768763 104.073975Q25.050013 103.62085 26.440638 103.62085Q28.018763 103.62085 29.503138 104.230225Q30.971888 104.8396 32.08126 105.698975Z" fill-rule="nonzero"/><path fill="#000000" d="M55.05 345.21564Q55.05 343.6844 55.3625 342.7625Q55.675 341.825 56.284374 341.325Q56.909374 340.825 57.846874 340.825Q58.534374 340.825 59.05 341.10626Q59.58125 341.3875 59.925 341.91876Q60.26875 342.4344 60.45625 343.1844Q60.64375 343.9344 60.64375 345.21564Q60.64375 346.73126 60.33125 347.65314Q60.034374 348.575 59.409374 349.09064Q58.8 349.59064 57.846874 349.59064Q56.6125 349.59064 55.89375 348.7Q55.05 347.6375 55.05 345.21564ZM56.128124 345.21564Q56.128124 347.325 56.628124 348.02814Q57.128124 348.73126 57.846874 348.73126Q58.58125 348.73126 59.065624 348.02814Q59.565624 347.325 59.565624 345.21564Q59.565624 343.09064 59.065624 342.40314Q58.58125 341.7 57.83125 341.7Q57.1125 341.7 56.675 342.3094Q56.128124 343.09064 56.128124 345.21564ZM62.64375 349.45L62.64375 348.2469L63.846874 348.2469L63.846874 349.45L62.64375 349.45ZM69.01875 349.45L67.97188 349.45L67.97188 342.73126Q67.58125 343.09064 66.95625 343.46564Q66.34688 343.825 65.8625 343.9969L65.8625 342.98126Q66.7375 342.5594 67.39375 341.98126Q68.06563 341.3875 68.34688 340.825L69.01875 340.825L69.01875 349.45Z" fill-rule="nonzero"/><path fill="#000000" d="M69.01875 254.93889L67.97188 254.93889L67.97188 248.22014Q67.58125 248.57951 66.95625 248.95451Q66.34688 249.31389 65.8625 249.48576L65.8625 248.47014Q66.7375 248.04826 67.39375 247.47014Q68.06563 246.87639 68.34688 246.31389L69.01875 246.31389L69.01875 254.93889Z" fill-rule="nonzero"/><path fill="#000000" d="M62.01875 160.42778L60.971874 160.42778L60.971874 153.70903Q60.58125 154.0684 59.95625 154.4434Q59.346874 154.80278 58.8625 154.97466L58.8625 153.95903Q59.7375 153.53716 60.39375 152.95903Q61.065624 152.36528 61.346874 151.80278L62.01875 151.80278L62.01875 160.42778ZM65.05 156.1934Q65.05 154.66216 65.3625 153.74028Q65.675 152.80278 66.28438 152.30278Q66.90938 151.80278 67.84688 151.80278Q68.53438 151.80278 69.05 152.08403Q69.58125 152.36528 69.925 152.89653Q70.26875 153.41216 70.45625 154.16216Q70.64375 154.91216 70.64375 156.1934Q70.64375 157.70903 70.33125 158.6309Q70.03438 159.55278 69.40938 160.0684Q68.8 160.5684 67.84688 160.5684Q66.6125 160.5684 65.89375 159.67778Q65.05 158.61528 65.05 156.1934ZM66.12813 156.1934Q66.12813 158.30278 66.62813 159.0059Q67.12813 159.70903 67.84688 159.70903Q68.58125 159.70903 69.06563 159.0059Q69.56563 158.30278 69.56563 156.1934Q69.56563 154.0684 69.06563 153.3809Q68.58125 152.67778 67.83125 152.67778Q67.1125 152.67778 66.675 153.28716Q66.12813 154.0684 66.12813 156.1934Z" fill-rule="nonzero"/><path fill="#000000" d="M55.01875 65.916664L53.971874 65.916664L53.971874 59.197914Q53.58125 59.55729 52.95625 59.93229Q52.346874 60.291664 51.8625 60.46354L51.8625 59.447914Q52.7375 59.02604 53.39375 58.447914Q54.065624 57.854164 54.346874 57.291664L55.01875 57.291664L55.01875 65.916664ZM58.05 61.68229Q58.05 60.15104 58.3625 59.229164Q58.675 58.291664 59.284374 57.791664Q59.909374 57.291664 60.846874 57.291664Q61.534374 57.291664 62.05 57.572914Q62.58125 57.854164 62.925 58.385414Q63.26875 58.90104 63.45625 59.65104Q63.64375 60.40104 63.64375 61.68229Q63.64375 63.197914 63.33125 64.11979Q63.034374 65.041664 62.409374 65.55729Q61.8 66.05729 60.846874 66.05729Q59.6125 66.05729 58.89375 65.166664Q58.05 64.104164 58.05 61.68229ZM59.128124 61.68229Q59.128124 63.791664 59.628124 64.49479Q60.128124 65.197914 60.846874 65.197914Q61.58125 65.197914 62.065624 64.49479Q62.565624 63.791664 62.565624 61.68229Q62.565624 59.55729 62.065624 58.86979Q61.58125 58.166664 60.83125 58.166664Q60.1125 58.166664 59.675 58.77604Q59.128124 59.55729 59.128124 61.68229ZM65.05 61.68229Q65.05 60.15104 65.3625 59.229164Q65.675 58.291664 66.28438 57.791664Q66.90938 57.291664 67.84688 57.291664Q68.53438 57.291664 69.05 57.572914Q69.58125 57.854164 69.925 58.385414Q70.26875 58.90104 70.45625 59.65104Q70.64375 60.40104 70.64375 61.68229Q70.64375 63.197914 70.33125 64.11979Q70.03438 65.041664 69.40938 65.55729Q68.8 66.05729 67.84688 66.05729Q66.6125 66.05729 65.89375 65.166664Q65.05 64.104164 65.05 61.68229ZM66.12813 61.68229Q66.12813 63.791664 66.62813 64.49479Q67.12813 65.197914 67.84688 65.197914Q68.58125 65.197914 69.06563 64.49479Q69.56563 63.791664 69.56563 61.68229Q69.56563 59.55729 69.06563 58.86979Q68.58125 58.166664 67.83125 58.166664Q67.1125 58.166664 66.675 58.77604Q66.12813 59.55729 66.12813 61.68229Z" fill-rule="nonzero"/><path fill="#4285f4" d="M307.91556 61.916668C307.91556 65.23038 305.22928 67.916664 301.91556 67.916664C298.60184 67.916664 295.91556 65.23038 295.91556 61.916668C295.91556 58.60296 298.60184 55.916668 301.91556 55.916668C305.22928 55.916668 307.91556 58.60296 307.91556 61.916668Z" fill-rule="nonzero"/><path fill="#1a1a1a" d="M316.89993 65.916664L316.89993 57.322914L322.6968 57.322914L322.6968 58.33854L318.04056 58.33854L318.04056 60.99479L322.0718 60.99479L322.0718 62.010414L318.04056 62.010414L318.04056 65.916664L316.89993 65.916664ZM327.77493 65.15104Q327.18118 65.65104 326.6343 65.854164Q326.10306 66.05729 325.47806 66.05729Q324.4468 66.05729 323.89993 65.55729Q323.35306 65.05729 323.35306 64.27604Q323.35306 63.822914 323.55618 63.447914Q323.7593 63.05729 324.10306 62.83854Q324.4468 62.604164 324.86868 62.49479Q325.16556 62.40104 325.80618 62.322914Q327.0718 62.18229 327.68118 61.96354Q327.68118 61.74479 327.68118 61.697914Q327.68118 61.041664 327.3843 60.77604Q326.97806 60.43229 326.18118 60.43229Q325.4468 60.43229 325.08743 60.697914Q324.72806 60.947914 324.55618 61.604164L323.52493 61.46354Q323.66556 60.80729 323.99368 60.40104Q324.3218 59.99479 324.93118 59.77604Q325.54056 59.55729 326.33743 59.55729Q327.1343 59.55729 327.6343 59.74479Q328.1343 59.93229 328.36868 60.21354Q328.60306 60.49479 328.6968 60.93229Q328.74368 61.197914 328.74368 61.90104L328.74368 63.30729Q328.74368 64.77604 328.80618 65.166664Q328.8843 65.55729 329.08743 65.916664L327.97806 65.916664Q327.8218 65.58854 327.77493 65.15104ZM327.68118 62.791664Q327.10306 63.02604 325.96243 63.197914Q325.30618 63.291664 325.04056 63.416664Q324.77493 63.52604 324.61868 63.74479Q324.47806 63.96354 324.47806 64.24479Q324.47806 64.666664 324.79056 64.947914Q325.11868 65.229164 325.72806 65.229164Q326.33743 65.229164 326.80618 64.96354Q327.29056 64.697914 327.5093 64.229164Q327.68118 63.86979 327.68118 63.18229L327.68118 62.791664ZM330.29056 64.05729L331.3218 63.90104Q331.41556 64.52604 331.80618 64.854164Q332.21243 65.18229 332.9468 65.18229Q333.66556 65.18229 334.0093 64.90104Q334.36868 64.604164 334.36868 64.197914Q334.36868 63.83854 334.05618 63.635414Q333.83743 63.49479 332.97806 63.27604Q331.8218 62.979164 331.36868 62.77604Q330.93118 62.55729 330.6968 62.18229Q330.46243 61.80729 330.46243 61.33854Q330.46243 60.93229 330.64993 60.572914Q330.83743 60.21354 331.16556 59.979164Q331.41556 59.80729 331.83743 59.68229Q332.2593 59.55729 332.7593 59.55729Q333.47806 59.55729 334.02493 59.77604Q334.58743 59.979164 334.85306 60.33854Q335.11868 60.697914 335.21243 61.291664L334.18118 61.43229Q334.11868 60.96354 333.77493 60.697914Q333.4468 60.416664 332.8218 60.416664Q332.10306 60.416664 331.79056 60.666664Q331.47806 60.90104 331.47806 61.229164Q331.47806 61.43229 331.60306 61.58854Q331.74368 61.760414 332.0093 61.86979Q332.16556 61.93229 332.9468 62.135414Q334.0718 62.447914 334.5093 62.635414Q334.9468 62.822914 335.1968 63.18229Q335.4468 63.541664 335.4468 64.08854Q335.4468 64.61979 335.1343 65.08854Q334.83743 65.541664 334.2593 65.80729Q333.68118 66.05729 332.9468 66.05729Q331.72806 66.05729 331.08743 65.55729Q330.46243 65.041664 330.29056 64.05729ZM340.0093 64.979164L340.16556 65.90104Q339.71243 65.99479 339.36868 65.99479Q338.79056 65.99479 338.47806 65.822914Q338.16556 65.635414 338.02493 65.33854Q337.89993 65.041664 337.89993 64.08854L337.89993 60.510414L337.1343 60.510414L337.1343 59.697914L337.89993 59.697914L337.89993 58.15104L338.9468 57.52604L338.9468 59.697914L340.0093 59.697914L340.0093 60.510414L338.9468 60.510414L338.9468 64.15104Q338.9468 64.604164 338.99368 64.729164Q339.05618 64.854164 339.18118 64.93229Q339.30618 65.010414 339.54056 65.010414Q339.72806 65.010414 340.0093 64.979164ZM340.68118 65.916664L340.68118 57.322914L341.74368 57.322914L341.74368 65.916664L340.68118 65.916664ZM343.66556 68.30729L343.54056 67.322914Q343.8843 67.416664 344.14993 67.416664Q344.49368 67.416664 344.6968 67.291664Q344.91556 67.18229 345.05618 66.979164Q345.14993 66.80729 345.3843 66.18229Q345.39993 66.104164 345.47806 65.93229L343.10306 59.697914L344.24368 59.697914L345.54056 63.291664Q345.79056 63.979164 345.99368 64.74479Q346.18118 64.010414 346.43118 63.322914L347.7593 59.697914L348.80618 59.697914L346.4468 66.02604Q346.05618 67.041664 345.85306 67.43229Q345.5718 67.96354 345.1968 68.197914Q344.83743 68.447914 344.33743 68.447914Q344.04056 68.447914 343.66556 68.30729ZM357.97806 62.90104L359.10306 63.197914Q358.74368 64.58854 357.8218 65.322914Q356.89993 66.05729 355.55618 66.05729Q354.16556 66.05729 353.29056 65.49479Q352.41556 64.93229 351.96243 63.86979Q351.5093 62.791664 351.5093 61.55729Q351.5093 60.21354 352.02493 59.21354Q352.54056 58.21354 353.47806 57.697914Q354.43118 57.18229 355.5718 57.18229Q356.85306 57.18229 357.72806 57.83854Q358.61868 58.49479 358.96243 59.68229L357.83743 59.947914Q357.54056 59.010414 356.96243 58.58854Q356.39993 58.15104 355.54056 58.15104Q354.55618 58.15104 353.8843 58.635414Q353.22806 59.104164 352.9468 59.90104Q352.68118 60.697914 352.68118 61.55729Q352.68118 62.65104 352.99368 63.46354Q353.3218 64.27604 353.99368 64.68229Q354.66556 65.08854 355.46243 65.08854Q356.41556 65.08854 357.0718 64.541664Q357.74368 63.99479 357.97806 62.90104ZM360.79056 65.916664L360.79056 57.322914L361.93118 57.322914L361.93118 64.90104L366.16556 64.90104L366.16556 65.916664L360.79056 65.916664ZM368.04056 65.916664L368.04056 57.322914L369.16556 57.322914L369.16556 65.916664L368.04056 65.916664Z" fill-rule="nonzero"/><path fill="#ea4335" d="M307.91556 85.916664C307.91556 89.23038 305.22928 91.916664 301.91556 91.916664C298.60184 91.916664 295.91556 89.23038 295.91556 85.916664C295.91556 82.60296 298.60184 79.916664 301.91556 79.916664C305.22928 79.916664 307.91556 82.60296 307.91556 85.916664Z" fill-rule="nonzero"/><path fill="#1a1a1a" d="M316.46243 87.15104L317.52493 87.05729Q317.60306 87.71354 317.8843 88.11979Q318.16556 88.52604 318.74368 88.791664Q319.33743 89.041664 320.0718 89.041664Q320.71243 89.041664 321.21243 88.854164Q321.71243 88.65104 321.9468 88.322914Q322.1968 87.979164 322.1968 87.58854Q322.1968 87.18229 321.96243 86.885414Q321.72806 86.572914 321.1968 86.36979Q320.83743 86.229164 319.64993 85.947914Q318.47806 85.666664 318.0093 85.416664Q317.3843 85.08854 317.08743 84.61979Q316.79056 84.135414 316.79056 83.541664Q316.79056 82.90104 317.14993 82.33854Q317.52493 81.760414 318.22806 81.479164Q318.9468 81.18229 319.80618 81.18229Q320.7593 81.18229 321.49368 81.49479Q322.22806 81.791664 322.61868 82.40104Q323.0093 82.99479 323.04056 83.74479L321.9468 83.822914Q321.85306 83.010414 321.33743 82.604164Q320.83743 82.18229 319.85306 82.18229Q318.8218 82.18229 318.35306 82.55729Q317.8843 82.93229 317.8843 83.46354Q317.8843 83.93229 318.21243 84.229164Q318.54056 84.52604 319.91556 84.83854Q321.30618 85.15104 321.8218 85.385414Q322.5718 85.74479 322.93118 86.27604Q323.29056 86.791664 323.29056 87.49479Q323.29056 88.18229 322.89993 88.791664Q322.5093 89.385414 321.77493 89.729164Q321.04056 90.05729 320.11868 90.05729Q318.9468 90.05729 318.14993 89.729164Q317.36868 89.385414 316.91556 88.697914Q316.47806 88.010414 316.46243 87.15104ZM328.68118 92.30729L328.68118 89.260414Q328.43118 89.604164 327.97806 89.83854Q327.54056 90.05729 327.04056 90.05729Q325.93118 90.05729 325.1343 89.18229Q324.33743 88.291664 324.33743 86.74479Q324.33743 85.80729 324.66556 85.072914Q324.99368 84.322914 325.60306 83.947914Q326.22806 83.55729 326.96243 83.55729Q328.11868 83.55729 328.77493 84.52604L328.77493 83.697914L329.72806 83.697914L329.72806 92.30729L328.68118 92.30729ZM325.41556 86.791664Q325.41556 87.99479 325.91556 88.58854Q326.43118 89.18229 327.1343 89.18229Q327.80618 89.18229 328.29056 88.61979Q328.77493 88.041664 328.77493 86.885414Q328.77493 85.635414 328.2593 85.010414Q327.7593 84.385414 327.05618 84.385414Q326.3843 84.385414 325.89993 84.979164Q325.41556 85.55729 325.41556 86.791664ZM335.79056 89.916664L335.79056 88.99479Q335.05618 90.05729 333.80618 90.05729Q333.2593 90.05729 332.77493 89.854164Q332.30618 89.635414 332.0718 89.322914Q331.83743 88.99479 331.74368 88.52604Q331.68118 88.229164 331.68118 87.541664L331.68118 83.697914L332.74368 83.697914L332.74368 87.15104Q332.74368 87.96354 332.80618 88.260414Q332.89993 88.666664 333.21243 88.916664Q333.54056 89.15104 334.02493 89.15104Q334.49368 89.15104 334.89993 88.916664Q335.3218 88.666664 335.49368 88.24479Q335.68118 87.822914 335.68118 87.02604L335.68118 83.697914L336.72806 83.697914L336.72806 89.916664L335.79056 89.916664ZM338.71243 82.541664L338.71243 81.322914L339.77493 81.322914L339.77493 82.541664L338.71243 82.541664ZM338.71243 89.916664L338.71243 83.697914L339.77493 83.697914L339.77493 89.916664L338.71243 89.916664ZM341.5093 90.43229L342.54056 90.58854Q342.60306 91.05729 342.89993 91.27604Q343.29056 91.572914 343.96243 91.572914Q344.6968 91.572914 345.08743 91.27604Q345.49368 90.979164 345.6343 90.46354Q345.72806 90.135414 345.71243 89.104164Q345.02493 89.916664 343.99368 89.916664Q342.71243 89.916664 342.0093 88.99479Q341.30618 88.05729 341.30618 86.77604Q341.30618 85.885414 341.61868 85.135414Q341.9468 84.36979 342.55618 83.96354Q343.16556 83.55729 343.99368 83.55729Q345.10306 83.55729 345.8218 84.447914L345.8218 83.697914L346.79056 83.697914L346.79056 89.072914Q346.79056 90.52604 346.49368 91.135414Q346.1968 91.74479 345.55618 92.08854Q344.91556 92.447914 343.97806 92.447914Q342.86868 92.447914 342.18118 91.947914Q341.49368 91.447914 341.5093 90.43229ZM342.3843 86.697914Q342.3843 87.916664 342.86868 88.479164Q343.35306 89.041664 344.08743 89.041664Q344.8218 89.041664 345.30618 88.479164Q345.80618 87.916664 345.80618 86.729164Q345.80618 85.58854 345.29056 85.010414Q344.79056 84.43229 344.0718 84.43229Q343.36868 84.43229 342.86868 85.010414Q342.3843 85.572914 342.3843 86.697914ZM348.71243 82.541664L348.71243 81.322914L349.77493 81.322914L349.77493 82.541664L348.71243 82.541664ZM348.71243 89.916664L348.71243 83.697914L349.77493 83.697914L349.77493 89.916664L348.71243 89.916664ZM351.68118 89.916664L351.68118 81.322914L352.74368 81.322914L352.74368 89.916664L351.68118 89.916664ZM354.71243 84.36979L354.4468 82.760414L354.4468 81.322914L355.64993 81.322914L355.64993 82.760414L355.36868 84.36979L354.71243 84.36979ZM356.29056 88.05729L357.3218 87.90104Q357.41556 88.52604 357.80618 88.854164Q358.21243 89.18229 358.9468 89.18229Q359.66556 89.18229 360.0093 88.90104Q360.36868 88.604164 360.36868 88.197914Q360.36868 87.83854 360.05618 87.635414Q359.83743 87.49479 358.97806 87.27604Q357.8218 86.979164 357.36868 86.77604Q356.93118 86.55729 356.6968 86.18229Q356.46243 85.80729 356.46243 85.33854Q356.46243 84.93229 356.64993 84.572914Q356.83743 84.21354 357.16556 83.979164Q357.41556 83.80729 357.83743 83.68229Q358.2593 83.55729 358.7593 83.55729Q359.47806 83.55729 360.02493 83.77604Q360.58743 83.979164 360.85306 84.33854Q361.11868 84.697914 361.21243 85.291664L360.18118 85.43229Q360.11868 84.96354 359.77493 84.697914Q359.4468 84.416664 358.8218 84.416664Q358.10306 84.416664 357.79056 84.666664Q357.47806 84.90104 357.47806 85.229164Q357.47806 85.43229 357.60306 85.58854Q357.74368 85.760414 358.0093 85.86979Q358.16556 85.93229 358.9468 86.135414Q360.0718 86.447914 360.5093 86.635414Q360.9468 86.822914 361.1968 87.18229Q361.4468 87.541664 361.4468 88.08854Q361.4468 88.61979 361.1343 89.08854Q360.83743 89.541664 360.2593 89.80729Q359.68118 90.05729 358.9468 90.05729Q357.72806 90.05729 357.08743 89.55729Q356.46243 89.041664 356.29056 88.05729Z" fill-rule="nonzero"/><path fill="#1a1a1a" d="M316.8843 103.916664L316.8843 95.322914L318.0093 95.322914L318.0093 98.854164L322.47806 98.854164L322.47806 95.322914L323.61868 95.322914L323.61868 103.916664L322.47806 103.916664L322.47806 99.86979L318.0093 99.86979L318.0093 103.916664L316.8843 103.916664ZM325.3218 100.80729Q325.3218 99.072914 326.27493 98.24479Q327.0718 97.55729 328.22806 97.55729Q329.5093 97.55729 330.3218 98.40104Q331.14993 99.229164 331.14993 100.71354Q331.14993 101.916664 330.79056 102.604164Q330.43118 103.291664 329.72806 103.68229Q329.04056 104.05729 328.22806 104.05729Q326.93118 104.05729 326.11868 103.229164Q325.3218 102.385414 325.3218 100.80729ZM326.39993 100.80729Q326.39993 101.99479 326.91556 102.58854Q327.4468 103.18229 328.22806 103.18229Q329.02493 103.18229 329.54056 102.58854Q330.05618 101.99479 330.05618 100.77604Q330.05618 99.61979 329.52493 99.02604Q329.0093 98.43229 328.22806 98.43229Q327.4468 98.43229 326.91556 99.02604Q326.39993 99.604164 326.39993 100.80729ZM336.79056 103.916664L336.79056 102.99479Q336.05618 104.05729 334.80618 104.05729Q334.2593 104.05729 333.77493 103.854164Q333.30618 103.635414 333.0718 103.322914Q332.83743 102.99479 332.74368 102.52604Q332.68118 102.229164 332.68118 101.541664L332.68118 97.697914L333.74368 97.697914L333.74368 101.15104Q333.74368 101.96354 333.80618 102.260414Q333.89993 102.666664 334.21243 102.916664Q334.54056 103.15104 335.02493 103.15104Q335.49368 103.15104 335.89993 102.916664Q336.3218 102.666664 336.49368 102.24479Q336.68118 101.822914 336.68118 101.02604L336.68118 97.697914L337.72806 97.697914L337.72806 103.916664L336.79056 103.916664ZM339.29056 102.05729L340.3218 101.90104Q340.41556 102.52604 340.80618 102.854164Q341.21243 103.18229 341.9468 103.18229Q342.66556 103.18229 343.0093 102.90104Q343.36868 102.604164 343.36868 102.197914Q343.36868 101.83854 343.05618 101.635414Q342.83743 101.49479 341.97806 101.27604Q340.8218 100.979164 340.36868 100.77604Q339.93118 100.55729 339.6968 100.18229Q339.46243 99.80729 339.46243 99.33854Q339.46243 98.93229 339.64993 98.572914Q339.83743 98.21354 340.16556 97.979164Q340.41556 97.80729 340.83743 97.68229Q341.2593 97.55729 341.7593 97.55729Q342.47806 97.55729 343.02493 97.77604Q343.58743 97.979164 343.85306 98.33854Q344.11868 98.697914 344.21243 99.291664L343.18118 99.43229Q343.11868 98.96354 342.77493 98.697914Q342.4468 98.416664 341.8218 98.416664Q341.10306 98.416664 340.79056 98.666664Q340.47806 98.90104 340.47806 99.229164Q340.47806 99.43229 340.60306 99.58854Q340.74368 99.760414 341.0093 99.86979Q341.16556 99.93229 341.9468 100.135414Q343.0718 100.447914 343.5093 100.635414Q343.9468 100.822914 344.1968 101.18229Q344.4468 101.541664 344.4468 102.08854Q344.4468 102.61979 344.1343 103.08854Q343.83743 103.541664 343.2593 103.80729Q342.68118 104.05729 341.9468 104.05729Q340.72806 104.05729 340.08743 103.55729Q339.46243 103.041664 339.29056 102.05729ZM350.96243 101.916664L352.05618 102.041664Q351.80618 102.99479 351.10306 103.52604Q350.39993 104.05729 349.3218 104.05729Q347.96243 104.05729 347.14993 103.21354Q346.35306 102.36979 346.35306 100.854164Q346.35306 99.291664 347.16556 98.43229Q347.97806 97.55729 349.2593 97.55729Q350.5093 97.55729 351.29056 98.40104Q352.08743 99.24479 352.08743 100.791664Q352.08743 100.885414 352.08743 101.072914L347.4468 101.072914Q347.5093 102.104164 348.02493 102.65104Q348.54056 103.18229 349.3218 103.18229Q349.89993 103.18229 350.30618 102.885414Q350.72806 102.572914 350.96243 101.916664ZM347.5093 100.21354L350.97806 100.21354Q350.91556 99.416664 350.58743 99.02604Q350.0718 98.416664 349.27493 98.416664Q348.54056 98.416664 348.04056 98.90104Q347.55618 99.385414 347.5093 100.21354Z" fill-rule="nonzero"/><path fill="#757575" d="M23.7375 37.55L23.7375 24.925L19.01875 24.925L19.01875 23.2375L30.3625 23.2375L30.3625 24.925L25.628124 24.925L25.628124 37.55L23.7375 37.55ZM31.878124 25.253124L31.878124 23.2375L33.64375 23.2375L33.64375 25.253124L31.878124 25.253124ZM31.878124 37.55L31.878124 27.175L33.64375 27.175L33.64375 37.55L31.878124 37.55ZM35.8625 37.55L35.8625 27.175L37.440624 27.175L37.440624 28.628124Q37.925 27.878124 38.7375 27.409374Q39.55 26.940624 40.58125 26.940624Q41.7375 26.940624 42.471874 27.425Q43.20625 27.89375 43.51875 28.753124Q44.753124 26.940624 46.721874 26.940624Q48.26875 26.940624 49.096874 27.8Q49.925 28.659374 49.925 30.425L49.925 37.55L48.175 37.55L48.175 31.01875Q48.175 29.95625 48.003124 29.503124Q47.83125 29.034374 47.378124 28.753124Q46.940624 28.471874 46.33125 28.471874Q45.2375 28.471874 44.503124 29.20625Q43.784374 29.925 43.784374 31.51875L43.784374 37.55L42.034374 37.55L42.034374 30.815624Q42.034374 29.64375 41.596874 29.065624Q41.175 28.471874 40.190624 28.471874Q39.45625 28.471874 38.815624 28.8625Q38.190624 29.253124 37.909374 30.003124Q37.628124 30.753124 37.628124 32.175L37.628124 37.55L35.8625 37.55ZM58.971874 34.20625L60.784374 34.440624Q60.3625 36.01875 59.190624 36.909374Q58.034374 37.784374 56.221874 37.784374Q53.95625 37.784374 52.6125 36.39375Q51.284374 34.9875 51.284374 32.45625Q51.284374 29.83125 52.628124 28.39375Q53.971874 26.940624 56.128124 26.940624Q58.20625 26.940624 59.51875 28.3625Q60.846874 29.76875 60.846874 32.346874Q60.846874 32.503124 60.83125 32.815624L53.096874 32.815624Q53.190624 34.51875 54.065624 35.425Q54.940624 36.33125 56.2375 36.33125Q57.20625 36.33125 57.878124 35.83125Q58.565624 35.315624 58.971874 34.20625ZM53.190624 31.3625L58.9875 31.3625Q58.878124 30.065624 58.33125 29.409374Q57.4875 28.39375 56.14375 28.39375Q54.940624 28.39375 54.1125 29.20625Q53.284374 30.003124 53.190624 31.3625ZM69.28438 37.55L69.28438 28.55L67.7375 28.55L67.7375 27.175L69.28438 27.175L69.28438 26.08125Q69.28438 25.034374 69.47188 24.51875Q69.72188 23.83125 70.3625 23.409374Q71.00313 22.9875 72.15938 22.9875Q72.90938 22.9875 73.8 23.159374L73.53438 24.690624Q72.9875 24.596874 72.50313 24.596874Q71.70625 24.596874 71.3625 24.940624Q71.03438 25.284374 71.03438 26.221874L71.03438 27.175L73.06563 27.175L73.06563 28.55L71.03438 28.55L71.03438 37.55L69.28438 37.55ZM74.84688 37.55L74.84688 27.175L76.425 27.175L76.425 28.753124Q77.03438 27.64375 77.55 27.3Q78.06563 26.940624 78.675 26.940624Q79.56563 26.940624 80.4875 27.503124L79.87813 29.14375Q79.2375 28.753124 78.59688 28.753124Q78.01875 28.753124 77.55 29.1125Q77.09688 29.45625 76.89375 30.065624Q76.6125 31.003124 76.6125 32.1125L76.6125 37.55L74.84688 37.55ZM81.22188 32.3625Q81.22188 29.4875 82.81563 28.096874Q84.15938 26.940624 86.08125 26.940624Q88.22188 26.940624 89.56563 28.346874Q90.925 29.753124 90.925 32.221874Q90.925 34.221874 90.33125 35.378124Q89.7375 36.51875 88.58125 37.159374Q87.44063 37.784374 86.08125 37.784374Q83.89375 37.784374 82.55 36.39375Q81.22188 34.9875 81.22188 32.3625ZM83.01875 32.3625Q83.01875 34.3625 83.87813 35.346874Q84.75313 36.33125 86.08125 36.33125Q87.39375 36.33125 88.25313 35.346874Q89.12813 34.346874 89.12813 32.3Q89.12813 30.378124 88.25313 29.39375Q87.37813 28.39375 86.08125 28.39375Q84.75313 28.39375 83.87813 29.39375Q83.01875 30.378124 83.01875 32.3625ZM92.8625 37.55L92.8625 27.175L94.44063 27.175L94.44063 28.628124Q94.925 27.878124 95.7375 27.409374Q96.55 26.940624 97.58125 26.940624Q98.7375 26.940624 99.47188 27.425Q100.20625 27.89375 100.51875 28.753124Q101.75313 26.940624 103.72188 26.940624Q105.26875 26.940624 106.09688 27.8Q106.925 28.659374 106.925 30.425L106.925 37.55L105.175 37.55L105.175 31.01875Q105.175 29.95625 105.00313 29.503124Q104.83125 29.034374 104.37813 28.753124Q103.94063 28.471874 103.33125 28.471874Q102.2375 28.471874 101.50313 29.20625Q100.78438 29.925 100.78438 31.51875L100.78438 37.55L99.03438 37.55L99.03438 30.815624Q99.03438 29.64375 98.59688 29.065624Q98.175 28.471874 97.19063 28.471874Q96.45625 28.471874 95.81563 28.8625Q95.19063 29.253124 94.90938 30.003124Q94.62813 30.753124 94.62813 32.175L94.62813 37.55L92.8625 37.55ZM114.15938 34.45625L115.90938 34.175Q116.05 35.221874 116.72188 35.784374Q117.39375 36.33125 118.59688 36.33125Q119.8 36.33125 120.37813 35.846874Q120.97188 35.346874 120.97188 34.690624Q120.97188 34.096874 120.45625 33.753124Q120.09688 33.51875 118.65938 33.159374Q116.72188 32.659374 115.97188 32.315624Q115.2375 31.95625 114.84688 31.33125Q114.45625 30.690624 114.45625 29.925Q114.45625 29.2375 114.76875 28.64375Q115.09688 28.05 115.64375 27.659374Q116.05 27.3625 116.75313 27.159374Q117.47188 26.940624 118.28438 26.940624Q119.50313 26.940624 120.425 27.3Q121.34688 27.64375 121.78438 28.253124Q122.22188 28.846874 122.39375 29.846874L120.675 30.08125Q120.55 29.284374 119.9875 28.846874Q119.425 28.39375 118.40938 28.39375Q117.19063 28.39375 116.675 28.8Q116.15938 29.190624 116.15938 29.721874Q116.15938 30.065624 116.37813 30.346874Q116.58125 30.628124 117.05 30.815624Q117.31563 30.909374 118.59688 31.253124Q120.47188 31.753124 121.20625 32.08125Q121.94063 32.39375 122.3625 33.003124Q122.78438 33.596874 122.78438 34.503124Q122.78438 35.378124 122.26875 36.159374Q121.75313 36.940624 120.78438 37.3625Q119.81563 37.784374 118.59688 37.784374Q116.58125 37.784374 115.51875 36.940624Q114.45625 36.096874 114.15938 34.45625ZM124.22188 32.3625Q124.22188 29.4875 125.81563 28.096874Q127.15938 26.940624 129.08125 26.940624Q131.22188 26.940624 132.56563 28.346874Q133.925 29.753124 133.925 32.221874Q133.925 34.221874 133.33125 35.378124Q132.7375 36.51875 131.58125 37.159374Q130.44063 37.784374 129.08125 37.784374Q126.89375 37.784374 125.55 36.39375Q124.22188 34.9875 124.22188 32.3625ZM126.01875 32.3625Q126.01875 34.3625 126.87813 35.346874Q127.75313 36.33125 129.08125 36.33125Q130.39375 36.33125 131.25313 35.346874Q132.12813 34.346874 132.12813 32.3Q132.12813 30.378124 131.25313 29.39375Q130.37813 28.39375 129.08125 28.39375Q127.75313 28.39375 126.87813 29.39375Q126.01875 30.378124 126.01875 32.3625ZM142.65938 37.55L142.65938 36.01875Q141.45625 37.784374 139.37813 37.784374Q138.45625 37.784374 137.65938 37.440624Q136.8625 37.08125 136.47188 36.55Q136.09688 36.01875 135.94063 35.2375Q135.83125 34.721874 135.83125 33.596874L135.83125 27.175L137.58125 27.175L137.58125 32.925Q137.58125 34.3 137.69063 34.784374Q137.8625 35.471874 138.39375 35.878124Q138.94063 36.26875 139.72188 36.26875Q140.51875 36.26875 141.20625 35.8625Q141.90938 35.45625 142.19063 34.76875Q142.4875 34.065624 142.4875 32.7375L142.4875 27.175L144.2375 27.175L144.2375 37.55L142.65938 37.55ZM145.84688 37.55L145.84688 27.175L147.425 27.175L147.425 28.753124Q148.03438 27.64375 148.55 27.3Q149.06563 26.940624 149.675 26.940624Q150.56563 26.940624 151.4875 27.503124L150.87813 29.14375Q150.2375 28.753124 149.59688 28.753124Q149.01875 28.753124 148.55 29.1125Q148.09688 29.45625 147.89375 30.065624Q147.6125 31.003124 147.6125 32.1125L147.6125 37.55L145.84688 37.55ZM159.64375 33.753124L161.3625 33.971874Q161.08125 35.76875 159.90938 36.784374Q158.75313 37.784374 157.05 37.784374Q154.925 37.784374 153.62813 36.39375Q152.33125 35.003124 152.33125 32.409374Q152.33125 30.721874 152.87813 29.471874Q153.44063 28.20625 154.58125 27.58125Q155.72188 26.940624 157.06563 26.940624Q158.75313 26.940624 159.81563 27.8Q160.89375 28.659374 161.20625 30.221874L159.4875 30.4875Q159.25313 29.440624 158.62813 28.925Q158.00313 28.39375 157.12813 28.39375Q155.8 28.39375 154.97188 29.346874Q154.14375 30.3 154.14375 32.346874Q154.14375 34.440624 154.94063 35.39375Q155.7375 36.33125 157.03438 36.33125Q158.06563 36.33125 158.75313 35.70625Q159.45625 35.065624 159.64375 33.753124ZM169.97188 34.20625L171.78438 34.440624Q171.3625 36.01875 170.19063 36.909374Q169.03438 37.784374 167.22188 37.784374Q164.95625 37.784374 163.6125 36.39375Q162.28438 34.9875 162.28438 32.45625Q162.28438 29.83125 163.62813 28.39375Q164.97188 26.940624 167.12813 26.940624Q169.20625 26.940624 170.51875 28.3625Q171.84688 29.76875 171.84688 32.346874Q171.84688 32.503124 171.83125 32.815624L164.09688 32.815624Q164.19063 34.51875 165.06563 35.425Q165.94063 36.33125 167.2375 36.33125Q168.20625 36.33125 168.87813 35.83125Q169.56563 35.315624 169.97188 34.20625ZM164.19063 31.3625L169.9875 31.3625Q169.87813 30.065624 169.33125 29.409374Q168.4875 28.39375 167.14375 28.39375Q165.94063 28.39375 165.1125 29.20625Q164.28438 30.003124 164.19063 31.3625ZM186.97188 34.20625L188.78438 34.440624Q188.3625 36.01875 187.19063 36.909374Q186.03438 37.784374 184.22188 37.784374Q181.95625 37.784374 180.6125 36.39375Q179.28438 34.9875 179.28438 32.45625Q179.28438 29.83125 180.62813 28.39375Q181.97188 26.940624 184.12813 26.940624Q186.20625 26.940624 187.51875 28.3625Q188.84688 29.76875 188.84688 32.346874Q188.84688 32.503124 188.83125 32.815624L181.09688 32.815624Q181.19063 34.51875 182.06563 35.425Q182.94063 36.33125 184.2375 36.33125Q185.20625 36.33125 185.87813 35.83125Q186.56563 35.315624 186.97188 34.20625ZM181.19063 31.3625L186.9875 31.3625Q186.87813 30.065624 186.33125 29.409374Q185.4875 28.39375 184.14375 28.39375Q182.94063 28.39375 182.1125 29.20625Q181.28438 30.003124 181.19063 31.3625ZM197.59688 37.55L197.59688 36.2375Q196.6125 37.784374 194.69063 37.784374Q193.45625 37.784374 192.40938 37.096874Q191.37813 36.409374 190.8 35.190624Q190.2375 33.971874 190.2375 32.378124Q190.2375 30.815624 190.75313 29.55Q191.26875 28.284374 192.3 27.6125Q193.34688 26.940624 194.6125 26.940624Q195.55 26.940624 196.28438 27.346874Q197.01875 27.7375 197.4875 28.3625L197.4875 23.2375L199.22188 23.2375L199.22188 37.55L197.59688 37.55ZM192.03438 32.378124Q192.03438 34.3625 192.87813 35.346874Q193.72188 36.33125 194.8625 36.33125Q196.01875 36.33125 196.81563 35.39375Q197.62813 34.45625 197.62813 32.51875Q197.62813 30.39375 196.8 29.39375Q195.9875 28.39375 194.78438 28.39375Q193.6125 28.39375 192.81563 29.3625Q192.03438 30.315624 192.03438 32.378124ZM201.87813 25.253124L201.87813 23.2375L203.64375 23.2375L203.64375 25.253124L201.87813 25.253124ZM201.87813 37.55L201.87813 27.175L203.64375 27.175L203.64375 37.55L201.87813 37.55ZM209.70625 35.971874L209.95625 37.534374Q209.22188 37.690624 208.62813 37.690624Q207.675 37.690624 207.14375 37.39375Q206.62813 37.08125 206.40938 36.596874Q206.19063 36.096874 206.19063 34.51875L206.19063 28.55L204.90938 28.55L204.90938 27.175L206.19063 27.175L206.19063 24.6125L207.94063 23.55L207.94063 27.175L209.70625 27.175L209.70625 28.55L207.94063 28.55L207.94063 34.6125Q207.94063 35.3625 208.03438 35.58125Q208.12813 35.784374 208.33125 35.925Q208.55 36.05 208.94063 36.05Q209.22188 36.05 209.70625 35.971874ZM221.70625 35.971874L221.95625 37.534374Q221.22188 37.690624 220.62813 37.690624Q219.675 37.690624 219.14375 37.39375Q218.62813 37.08125 218.40938 36.596874Q218.19063 36.096874 218.19063 34.51875L218.19063 28.55L216.90938 28.55L216.90938 27.175L218.19063 27.175L218.19063 24.6125L219.94063 23.55L219.94063 27.175L221.70625 27.175L221.70625 28.55L219.94063 28.55L219.94063 34.6125Q219.94063 35.3625 220.03438 35.58125Q220.12813 35.784374 220.33125 35.925Q220.55 36.05 220.94063 36.05Q221.22188 36.05 221.70625 35.971874ZM223.22188 32.3625Q223.22188 29.4875 224.81563 28.096874Q226.15938 26.940624 228.08125 26.940624Q230.22188 26.940624 231.56563 28.346874Q232.925 29.753124 232.925 32.221874Q232.925 34.221874 232.33125 35.378124Q231.7375 36.51875 230.58125 37.159374Q229.44063 37.784374 228.08125 37.784374Q225.89375 37.784374 224.55 36.39375Q223.22188 34.9875 223.22188 32.3625ZM225.01875 32.3625Q225.01875 34.3625 225.87813 35.346874Q226.75313 36.33125 228.08125 36.33125Q229.39375 36.33125 230.25313 35.346874Q231.12813 34.346874 231.12813 32.3Q231.12813 30.378124 230.25313 29.39375Q229.37813 28.39375 228.08125 28.39375Q226.75313 28.39375 225.87813 29.39375Q225.01875 30.378124 225.01875 32.3625ZM240.8625 37.55L240.8625 27.175L242.45625 27.175L242.45625 28.659374Q243.59688 26.940624 245.75313 26.940624Q246.69063 26.940624 247.47188 27.284374Q248.26875 27.6125 248.65938 28.159374Q249.05 28.70625 249.20625 29.45625Q249.3 29.95625 249.3 31.175L249.3 37.55L247.53438 37.55L247.53438 31.2375Q247.53438 30.159374 247.33125 29.628124Q247.12813 29.096874 246.59688 28.784374Q246.08125 28.471874 245.37813 28.471874Q244.25313 28.471874 243.44063 29.190624Q242.62813 29.89375 242.62813 31.878124L242.62813 37.55L240.8625 37.55ZM257.97186 34.20625L259.78436 34.440624Q259.3625 36.01875 258.1906 36.909374Q257.03436 37.784374 255.22188 37.784374Q252.95625 37.784374 251.6125 36.39375Q250.28438 34.9875 250.28438 32.45625Q250.28438 29.83125 251.62813 28.39375Q252.97188 26.940624 255.12813 26.940624Q257.20624 26.940624 258.51874 28.3625Q259.84686 29.76875 259.84686 32.346874Q259.84686 32.503124 259.83124 32.815624L252.09688 32.815624Q252.19063 34.51875 253.06563 35.425Q253.94063 36.33125 255.2375 36.33125Q256.20624 36.33125 256.8781 35.83125Q257.5656 35.315624 257.97186 34.20625ZM252.19063 31.3625L257.9875 31.3625Q257.8781 30.065624 257.33124 29.409374Q256.4875 28.39375 255.14375 28.39375Q253.94063 28.39375 253.1125 29.20625Q252.28438 30.003124 252.19063 31.3625ZM263.78436 37.55L260.6125 27.175L262.425 27.175L264.08124 33.159374L264.6906 35.39375Q264.7375 35.221874 265.22186 33.253124L266.8781 27.175L268.6906 27.175L270.2375 33.190624L270.7531 35.175L271.34686 33.175L273.1281 27.175L274.83124 27.175L271.59686 37.55L269.76874 37.55L268.1125 31.33125L267.72186 29.565624L265.6125 37.55L263.78436 37.55ZM282.84686 37.55L282.84686 27.175L284.425 27.175L284.425 28.753124Q285.03436 27.64375 285.55 27.3Q286.0656 26.940624 286.675 26.940624Q287.5656 26.940624 288.4875 27.503124L287.8781 29.14375Q287.2375 28.753124 286.59686 28.753124Q286.01874 28.753124 285.55 29.1125Q285.09686 29.45625 284.89374 30.065624Q284.6125 31.003124 284.6125 32.1125L284.6125 37.55L282.84686 37.55ZM296.97186 34.20625L298.78436 34.440624Q298.3625 36.01875 297.1906 36.909374Q296.03436 37.784374 294.22186 37.784374Q291.95624 37.784374 290.6125 36.39375Q289.28436 34.9875 289.28436 32.45625Q289.28436 29.83125 290.6281 28.39375Q291.97186 26.940624 294.1281 26.940624Q296.20624 26.940624 297.51874 28.3625Q298.84686 29.76875 298.84686 32.346874Q298.84686 32.503124 298.83124 32.815624L291.09686 32.815624Q291.1906 34.51875 292.0656 35.425Q292.9406 36.33125 294.2375 36.33125Q295.20624 36.33125 295.8781 35.83125Q296.5656 35.315624 296.97186 34.20625ZM291.1906 31.3625L296.9875 31.3625Q296.8781 30.065624 296.33124 29.409374Q295.4875 28.39375 294.14374 28.39375Q292.9406 28.39375 292.1125 29.20625Q291.28436 30.003124 291.1906 31.3625ZM300.15936 34.45625L301.90936 34.175Q302.05 35.221874 302.72186 35.784374Q303.39374 36.33125 304.59686 36.33125Q305.8 36.33125 306.3781 35.846874Q306.97186 35.346874 306.97186 34.690624Q306.97186 34.096874 306.45624 33.753124Q306.09686 33.51875 304.65936 33.159374Q302.72186 32.659374 301.97186 32.315624Q301.2375 31.95625 300.84686 31.33125Q300.45624 30.690624 300.45624 29.925Q300.45624 29.2375 300.76874 28.64375Q301.09686 28.05 301.64374 27.659374Q302.05 27.3625 302.7531 27.159374Q303.47186 26.940624 304.28436 26.940624Q305.5031 26.940624 306.425 27.3Q307.34686 27.64375 307.78436 28.253124Q308.22186 28.846874 308.39374 29.846874L306.675 30.08125Q306.55 29.284374 305.9875 28.846874Q305.425 28.39375 304.40936 28.39375Q303.1906 28.39375 302.675 28.8Q302.15936 29.190624 302.15936 29.721874Q302.15936 30.065624 302.3781 30.346874Q302.58124 30.628124 303.05 30.815624Q303.3156 30.909374 304.59686 31.253124Q306.47186 31.753124 307.20624 32.08125Q307.9406 32.39375 308.3625 33.003124Q308.78436 33.596874 308.78436 34.503124Q308.78436 35.378124 308.26874 36.159374Q307.7531 36.940624 306.78436 37.3625Q305.8156 37.784374 304.59686 37.784374Q302.58124 37.784374 301.51874 36.940624Q300.45624 36.096874 300.15936 34.45625ZM310.8625 41.51875L310.8625 27.175L312.47186 27.175L312.47186 28.51875Q313.03436 27.7375 313.7375 27.346874Q314.45624 26.940624 315.47186 26.940624Q316.8 26.940624 317.8156 27.628124Q318.83124 28.315624 319.34686 29.565624Q319.8781 30.8 319.8781 32.284374Q319.8781 33.878124 319.3 35.159374Q318.7375 36.425 317.64374 37.1125Q316.55 37.784374 315.34686 37.784374Q314.47186 37.784374 313.76874 37.409374Q313.08124 37.034374 312.6281 36.471874L312.6281 41.51875L310.8625 41.51875ZM312.45624 32.425Q312.45624 34.425 313.26874 35.378124Q314.08124 36.33125 315.2375 36.33125Q316.40936 36.33125 317.2375 35.346874Q318.08124 34.3625 318.08124 32.26875Q318.08124 30.3 317.2531 29.315624Q316.4406 28.315624 315.3156 28.315624Q314.1906 28.315624 313.3156 29.378124Q312.45624 30.425 312.45624 32.425ZM321.22186 32.3625Q321.22186 29.4875 322.8156 28.096874Q324.15936 26.940624 326.08124 26.940624Q328.22186 26.940624 329.5656 28.346874Q330.925 29.753124 330.925 32.221874Q330.925 34.221874 330.33124 35.378124Q329.7375 36.51875 328.58124 37.159374Q327.4406 37.784374 326.08124 37.784374Q323.89374 37.784374 322.55 36.39375Q321.22186 34.9875 321.22186 32.3625ZM323.01874 32.3625Q323.01874 34.3625 323.8781 35.346874Q324.7531 36.33125 326.08124 36.33125Q327.39374 36.33125 328.2531 35.346874Q329.1281 34.346874 329.1281 32.3Q329.1281 30.378124 328.2531 29.39375Q327.3781 28.39375 326.08124 28.39375Q324.7531 28.39375 323.8781 29.39375Q323.01874 30.378124 323.01874 32.3625ZM332.8625 37.55L332.8625 27.175L334.45624 27.175L334.45624 28.659374Q335.59686 26.940624 337.7531 26.940624Q338.6906 26.940624 339.47186 27.284374Q340.26874 27.6125 340.65936 28.159374Q341.05 28.70625 341.20624 29.45625Q341.3 29.95625 341.3 31.175L341.3 37.55L339.53436 37.55L339.53436 31.2375Q339.53436 30.159374 339.33124 29.628124Q339.1281 29.096874 338.59686 28.784374Q338.08124 28.471874 337.3781 28.471874Q336.2531 28.471874 335.4406 29.190624Q334.6281 29.89375 334.6281 31.878124L334.6281 37.55L332.8625 37.55ZM342.15936 34.45625L343.90936 34.175Q344.05 35.221874 344.72186 35.784374Q345.39374 36.33125 346.59686 36.33125Q347.8 36.33125 348.3781 35.846874Q348.97186 35.346874 348.97186 34.690624Q348.97186 34.096874 348.45624 33.753124Q348.09686 33.51875 346.65936 33.159374Q344.72186 32.659374 343.97186 32.315624Q343.2375 31.95625 342.84686 31.33125Q342.45624 30.690624 342.45624 29.925Q342.45624 29.2375 342.76874 28.64375Q343.09686 28.05 343.64374 27.659374Q344.05 27.3625 344.7531 27.159374Q345.47186 26.940624 346.28436 26.940624Q347.5031 26.940624 348.425 27.3Q349.34686 27.64375 349.78436 28.253124Q350.22186 28.846874 350.39374 29.846874L348.675 30.08125Q348.55 29.284374 347.9875 28.846874Q347.425 28.39375 346.40936 28.39375Q345.1906 28.39375 344.675 28.8Q344.15936 29.190624 344.15936 29.721874Q344.15936 30.065624 344.3781 30.346874Q344.58124 30.628124 345.05 30.815624Q345.3156 30.909374 346.59686 31.253124Q348.47186 31.753124 349.20624 32.08125Q349.9406 32.39375 350.3625 33.003124Q350.78436 33.596874 350.78436 34.503124Q350.78436 35.378124 350.26874 36.159374Q349.7531 36.940624 348.78436 37.3625Q347.8156 37.784374 346.59686 37.784374Q344.58124 37.784374 343.51874 36.940624Q342.45624 36.096874 342.15936 34.45625ZM359.97186 34.20625L361.78436 34.440624Q361.3625 36.01875 360.1906 36.909374Q359.03436 37.784374 357.22186 37.784374Q354.95624 37.784374 353.6125 36.39375Q352.28436 34.9875 352.28436 32.45625Q352.28436 29.83125 353.6281 28.39375Q354.97186 26.940624 357.1281 26.940624Q359.20624 26.940624 360.51874 28.3625Q361.84686 29.76875 361.84686 32.346874Q361.84686 32.503124 361.83124 32.815624L354.09686 32.815624Q354.1906 34.51875 355.0656 35.425Q355.9406 36.33125 357.2375 36.33125Q358.20624 36.33125 358.8781 35.83125Q359.5656 35.315624 359.97186 34.20625ZM354.1906 31.3625L359.9875 31.3625Q359.8781 30.065624 359.33124 29.409374Q358.4875 28.39375 357.14374 28.39375Q355.9406 28.39375 355.1125 29.20625Q354.28436 30.003124 354.1906 31.3625Z" fill-rule="nonzero"/></svg>